# xmcd CD database file
#
# Track frame offsets:
#	150
#	15786
#	28739
#	41789
#	54869
#	68879
#	84622
#	94035
#	105878
#	116101
#	129691
#	147594
#
# Disc length: 2196 seconds
#
# Revision: 0
# Processed by: cddbd v1.5.1PL0 Copyright (c) Steve Scherf et al.
# Submitted via: CDex 1.51
#
DISCID=9b08920c
DTITLE=Seppo Kohvakka - Paras on edess‰
DYEAR=2004
DGENRE=Country
TTITLE0=Paras on edess‰p‰in
TTITLE1=On armo suuri
TTITLE2=Kiitetty olkoon Herra
TTITLE3=Vanhan ajan usko
TTITLE4=Armon varassa
TTITLE5=Lead Me Gently Home
TTITLE6=Revival/Her‰tys/Amen
TTITLE7=Valon m‰ n‰in
TTITLE8=Stand By Me
TTITLE9=H‰n on mun lauluni aihe
TTITLE10=Nyt aika rient‰‰
TTITLE11=An American Trilogy
EXTD=YEAR: 2004
EXTT0=
EXTT1=
EXTT2=
EXTT3=
EXTT4=
EXTT5=
EXTT6=
EXTT7=
EXTT8=
EXTT9=
EXTT10=
EXTT11=
PLAYORDER=
